<svg width="24" height="24" viewBox="0 0 24 24" fill="none" xmlns="http://www.w3.org/2000/svg">
<g clip-path="url(#clip0_4763_2)">
<path fill-rule="evenodd" clip-rule="evenodd" d="M19.1466 10.7545C19.1466 12.2856 18.2044 13.5878 16.8922 14.0634L17.6855 15.3778L16.511 16.8222L17.6855 18.2345L15.7922 20.7756L14.4577 19.3511V16.4734V13.9667C13.271 13.4278 12.441 12.1922 12.441 10.7545C12.441 8.82114 13.9422 7.25336 15.7944 7.25336C17.6455 7.25336 19.1466 8.82114 19.1466 10.7545ZM15.7933 11.29C16.2399 11.29 16.6022 10.9122 16.6022 10.4456C16.6022 9.97891 16.2399 9.60002 15.7933 9.60002C15.3466 9.60002 14.9844 9.9778 14.9844 10.4456C14.9833 10.9122 15.3466 11.29 15.7933 11.29Z" fill="white"/>
<path fill-rule="evenodd" clip-rule="evenodd" d="M19.1566 10.7645C19.1566 12.2778 18.2399 13.5678 16.9532 14.0611L17.6843 15.3767L16.6032 16.8211L17.6843 18.2334L15.7921 20.7945V17.9167V14.2756V11.29C16.2388 11.29 16.601 10.9111 16.601 10.4456C16.601 9.97891 16.2388 9.60002 15.7921 9.60002V7.25336C17.651 7.25336 19.1566 8.82558 19.1566 10.7645Z" fill="#DAD9D9"/>
<path fill-rule="evenodd" clip-rule="evenodd" d="M13.3599 14.6034C12.2766 13.7145 11.5488 12.3478 11.4488 10.7956H5.64439C4.42661 10.7956 3.43994 11.7967 3.43994 13.0323V15.8289C3.43994 16.4467 3.93327 16.9478 4.54216 16.9478H12.2577C12.8666 16.9478 13.3599 16.4467 13.3599 15.8289V14.6034Z" fill="white"/>
<path d="M8.12886 10.1256C7.85997 10.0745 7.5933 10.0267 7.33886 9.91891C6.37775 9.51558 5.81775 8.77224 5.63663 7.72224C5.51219 7.00335 5.57108 6.29224 5.86219 5.62002C6.27552 4.66446 7.01664 4.14669 7.98997 3.97113C8.57219 3.86669 9.15219 3.89002 9.71219 4.09891C10.5555 4.41224 11.1211 5.01669 11.3822 5.90335C11.6466 6.7978 11.6077 7.69224 11.2089 8.53891C10.7955 9.42335 10.0744 9.8978 9.16219 10.0834C9.08663 10.0989 9.00997 10.1134 8.93441 10.1289C8.66664 10.1256 8.39775 10.1256 8.12886 10.1256Z" fill="white"/>
</g>
<defs>
<clipPath id="clip0_4763_2">
<rect width="24" height="24" fill="white"/>
</clipPath>
</defs>
</svg>
